<svg xmlns="http://www.w3.org/2000/svg" viewBox="0 0 500 164.49">
    <defs>
        <style>.cls-1{fill:#f43131;}</style>
    </defs>
    <g id="Layer_2" data-name="Layer 2">
        <g id="Layer_1-2" data-name="Layer 1">
            <path class="cls-1"
                d="M179.93,101.25a31.38,31.38,0,0,0-10.22-23.72q-10.23-9.68-27-9.68-15.51,0-24.91,7.94t-9.4,20.71a39.09,39.09,0,0,0,.64,7.08,5,5,0,0,0,4.92,4.06h13.44a5,5,0,0,0,5-5.39c-.06-.84-.08-1.72-.08-2.64a11.14,11.14,0,0,1,3.1-8.12,12.13,12.13,0,0,1,16.7.27q3.19,3.46,3.19,9.49,0,9.3-6.39,14.69t-18.79,5.38H116.86a5,5,0,0,0-5,5v14a2,2,0,0,0,.87,1.65l32,21.87a2,2,0,0,0,1.12.34h31a1.79,1.79,0,0,0,1.79-1.79h0a1.8,1.8,0,0,0-.78-1.48l-34.26-23.37Q160,135,170,125.79T179.93,101.25Z" />
            <path
                d="M182.48,42.05h-4.93a49.68,49.68,0,0,0,.73-8.58q0-13.69-7.66-21.26T148.54,4.64a69.9,69.9,0,0,0-15.78,2.19Q123.54,9,118.79,9a32.49,32.49,0,0,1-7.3-.78,5,5,0,0,0-6.2,4.81v9.33a5,5,0,0,0,3,4.59,31.9,31.9,0,0,0,12.89,2.48,66.84,66.84,0,0,0,13.14-1.73A66.45,66.45,0,0,1,145.62,26c3.77,0,6.3.91,7.57,2.73s1.92,4.63,1.92,8.4q0,.36-.09,2.19c-.06,1.22-.09,2.13-.09,2.74H5a5,5,0,0,0-5,5V57.48a5,5,0,0,0,5,5H65.69v10q-28.42,7.74-54.54,28.77a2,2,0,0,0-.75,1.57V125.3a2,2,0,0,0,.86,1.65l54.25,37.54.18-.18v.18H85.33a5,5,0,0,0,5-5v-97H248.17v9.67a86.94,86.94,0,0,0-27.73,10.31,231,231,0,0,0-26.8,18.83,2,2,0,0,0-.76,1.57V125.3a2,2,0,0,0,.86,1.65L248,164.49l.18-.18v.18h19.64a5,5,0,0,0,5-5V94.42q11.87.73,18.34,6.57a19,19,0,0,1,6.48,14.78q0,13.32-12.05,13.32h0a1.83,1.83,0,0,0-1.82,1.82v17.57a3.78,3.78,0,0,0,3.78,3.78h0q16.25,0,25.46-9.67t9.21-26.82q0-19.53-15-31.3a57,57,0,0,0-34.49-12.32V62.48h54.31a5,5,0,0,0,5-5V47.05a5,5,0,0,0-5-5H182.48ZM65.69,137.85,39.06,118.59a5,5,0,0,1,.14-8.2,145.29,145.29,0,0,1,26.49-13.6Zm182.48,0-27.28-19.66a5,5,0,0,1-.08-8.06q14-10.53,27.36-15Z" />
            <path class="cls-1"
                d="M416.06,89.54a3.41,3.41,0,0,0,3-3.39h0c0-15.88-2-26.17-9.82-34.61s-18.49-12.65-32.12-12.65q-19.69,0-30.93,10.89T335,78.34q0,18.24,10.22,28.1T373,116.3a55.45,55.45,0,0,0,5.93-.34,5,5,0,0,0,4.47-5V98a5,5,0,0,0-5.24-5c-.67,0-1.36,0-2.06,0a16.3,16.3,0,0,1-11.13-3.82q-4.38-3.81-4.38-10.88,0-7.44,4.29-11.82T377,62.15c12.9,0,17.48,6.14,17.48,22.14,0,1.69-.07,3.47-.2,5.33a0,0,0,0,0,0,0C398.81,89.9,409.2,90.34,416.06,89.54Z" />
            <path
                d="M495,41.68H450.18q-3.1-5.58-3.1-9.49,0-9.3,11.86-9.3h0a4,4,0,0,0,4-4V5.25a5,5,0,0,0-4.55-5c-2-.18-3.54-.27-4.58-.27q-15.15,0-23.08,7.35t-7.94,19.26q0,11.53,8.76,24.19V76.29q0,14.7-11.86,18.24v0c-5.09,1.79-14.06,1.81-20.23,1.56a5,5,0,0,0-5.2,4.71q-.3,4.81-.3,9.93,0,24.95,12.32,39.36t34.58,14.42q21.53,0,33.76-13.4t12.22-35q0-25.68-18.61-50l-2.74-3.54H495a5,5,0,0,0,5-5V46.68A5,5,0,0,0,495,41.68Zm-38.16,92.95q-5.38,7.53-16,7.53-10.41,0-16.15-7.25T419,115.55v-.18h.73q14.78,0,23.54-9T452,82.25V77.41a78,78,0,0,1,10.22,38.7Q462.23,127.09,456.84,134.63Z" />
        </g>
    </g>
</svg>