<?xml version="1.0" encoding="utf-8"?>
<!-- Generator: Adobe Illustrator 24.1.0, SVG Export Plug-In . SVG Version: 6.00 Build 0)  -->
<svg version="1.1" xmlns="http://www.w3.org/2000/svg" xmlns:xlink="http://www.w3.org/1999/xlink" x="0px" y="0px"
	 viewBox="0 0 1000 1600" style="enable-background:new 0 0 1000 1600;" xml:space="preserve">
<style type="text/css">
	.st0{fill:#F7941F;}
	.st1{fill:#FEF995;}
	.st2{opacity:0.7;fill:#D3EBDD;}
	.st3{opacity:0.7;fill:#FED8B1;}
	.st4{font-family:'NirmalaUI';}
	.st5{font-size:16.0838px;}
	.st6{fill:#C7940B;}
	.st7{fill:#3E81A3;}
	.st8{opacity:0.99;}
	.st9{font-size:13.7861px;}
	.st10{fill:#F27992;}
</style>
<g id="Layer_1">
</g>
<g id="Layer_2">
	<g>
		<g>
			<g>
				<g>
					<path class="st0" d="M523.6,851.8c19.4,0,35.1,15.8,35.1,35.1c0,19.4-15.8,35.1-35.1,35.1h-69c-19.4,0-35.1-15.8-35.1-35.1
						c0-19.4,15.8-35.1,35.1-35.1H523.6 M523.6,845.6h-69c-22.8,0-41.3,18.5-41.3,41.3v0c0,22.8,18.5,41.3,41.3,41.3h69
						c22.8,0,41.3-18.5,41.3-41.3v0C564.9,864.1,546.4,845.6,523.6,845.6L523.6,845.6z"/>
				</g>
				<g>
					<path class="st0" d="M523.6,1462.9c19.4,0,35.1,15.8,35.1,35.1s-15.8,35.1-35.1,35.1h-69c-19.4,0-35.1-15.8-35.1-35.1
						c0-19.4,15.8-35.1,35.1-35.1H523.6 M523.6,1456.8h-69c-22.8,0-41.3,18.5-41.3,41.3v0c0,22.8,18.5,41.3,41.3,41.3h69
						c22.8,0,41.3-18.5,41.3-41.3v0C564.9,1475.2,546.4,1456.8,523.6,1456.8L523.6,1456.8z"/>
				</g>
				<g>
					<path class="st0" d="M195.4,1157.3c13.8,0,24.9,11.2,24.9,24.9v20.4c0,13.8-11.2,24.9-24.9,24.9h-23.8
						c-13.8,0-24.9-11.2-24.9-24.9v-20.4c0-13.8,11.2-24.9,24.9-24.9H195.4 M195.4,1151.2h-23.8c-17.2,0-31.1,13.9-31.1,31.1v20.4
						c0,17.2,13.9,31.1,31.1,31.1h23.8c17.2,0,31.1-13.9,31.1-31.1v-20.4C226.5,1165.1,212.6,1151.2,195.4,1151.2L195.4,1151.2z"/>
				</g>
				<g>
					<path class="st0" d="M821.3,1157.3c17.7,0,32,14.4,32,32v6.2c0,17.7-14.4,32-32,32h-53.1c-17.7,0-32-14.4-32-32v-6.2
						c0-17.7,14.4-32,32-32H821.3 M821.3,1151.2h-53.1c-21.1,0-38.2,17.1-38.2,38.2v6.2c0,21.1,17.1,38.2,38.2,38.2h53.1
						c21.1,0,38.2-17.1,38.2-38.2v-6.2C859.4,1168.3,842.3,1151.2,821.3,1151.2L821.3,1151.2z"/>
				</g>
				<g>
					<path class="st0" d="M383.1,904.9l-35.1-1.2l6,11.3c-36.6,17.9-70,43.4-97,74.1c-29.6,33.8-51.9,74.4-64.4,117.3
						c-0.8,2.6-1.5,5.3-2.2,8l5.9,1.5c0.7-2.6,1.4-5.2,2.1-7.8c23.9-82.4,81.3-150.3,158.3-187.7l7.6,14.3L383.1,904.9z"/>
				</g>
				<g>
					<path class="st0" d="M769.6,1063.5c-34.9-75.7-99.2-134.5-178-162.2l-2,5.8c77.2,27.2,140.3,84.9,174.5,159.1l-13,6.2
						l28.9,19.9l2.8-35L769.6,1063.5z"/>
				</g>
				<g>
					<path class="st0" d="M201.2,1285.4l14.4-3.5l-24.3-25.4l-9.8,33.7l13.8-3.4c28.9,90.1,98.3,162.7,187.7,195.5l2.1-5.8
						C297.5,1444.5,229.6,1373.6,201.2,1285.4z"/>
				</g>
				<g>
					<path class="st0" d="M790.2,1260.7l-6-1.3c-20.4,90.3-81.4,166.3-164.6,206.1l-7-13.5l-18.9,29.5l35.1,1.6l-6.3-12.3
						C707.3,1430.2,769.4,1352.7,790.2,1260.7z"/>
				</g>
			</g>
			<path class="st1" d="M552.8,1431.1H447.2c-20,0-36.2-16.2-36.2-36.2v-80.4c0-20,16.2-36.2,36.2-36.2h105.5
				c20,0,36.2,16.2,36.2,36.2v80.4C589,1414.9,572.8,1431.1,552.8,1431.1z"/>
			<g>
				<path class="st1" d="M734,1100.4c0-67.8-54.9-122.7-122.7-122.7l0,0H388.7c-67.8,0-122.7,54.9-122.7,122.7
					s54.9,122.7,122.7,122.7l111.3,55.2l111.3-55.2l0,0C679.1,1223.2,734,1168.2,734,1100.4z"/>
				<circle class="st2" cx="388.7" cy="1100.4" r="122.7"/>
				<circle class="st3" cx="611.3" cy="1100.4" r="122.7"/>
				<g>
					<g>
						<polygon class="st0" points="500,1256 458.4,1233.8 460.1,1230.6 500,1251.9 539.9,1230.6 541.6,1233.8 						"/>
					</g>
					<g>
						<polygon class="st0" points="500,1263.6 458.4,1241.4 460.1,1238.2 500,1259.5 539.9,1238.2 541.6,1241.4 						"/>
					</g>
					<g>
						<polygon class="st0" points="500,1271.2 458.4,1249 460.1,1245.8 500,1267.1 539.9,1245.8 541.6,1249 						"/>
					</g>
				</g>
			</g>
		</g>
		<text transform="matrix(1 0 0 1 438.9536 883.8271)"><tspan x="0" y="0" class="st4 st5">পপককপটননররর</tspan><tspan x="16.5" y="19.3" class="st4 st5">অভভজতত</tspan></text>
		<g>
			<text transform="matrix(1 0 0 1 438.1074 1317.043)" class="st6 st4 st5">যযযগগততর উপপদদন</text>
		</g>
		<g>
			<text transform="matrix(1 0 0 1 483.3037 1343.0342)" class="st4 st5">জজন</text>
		</g>
		<g>
			<text transform="matrix(1 0 0 1 478.5288 1365.8467)" class="st4 st5">দকতত</text>
		</g>
		<g>
			<text transform="matrix(1 0 0 1 472.5249 1390.2393)" class="st4 st5">দদষষভঙঙ</text>
		</g>
		<g>
			<text transform="matrix(1 0 0 1 470.7539 1411.4746)" class="st4 st5">মমললবববধ</text>
		</g>
		<g>
			<text transform="matrix(1 0 0 1 161.7876 1187.8105)"><tspan x="0" y="0" class="st4 st5">সককয়</tspan><tspan x="-4.8" y="19.3" class="st4 st5">পররকণ</tspan></text>
		</g>
		<g>
			<text transform="matrix(1 0 0 1 742.6641 1192.4697)"><tspan x="0" y="0" class="st4 st5">পততফলনমমলক</tspan><tspan x="19" y="19.3" class="st4 st5">পররববকণ</tspan></text>
		</g>
		<g>
			<text transform="matrix(1 0 0 1 469.6396 1493.4482)"><tspan x="0" y="0" class="st4 st5">ববমমরর</tspan><tspan x="-10.5" y="19.3" class="st4 st5">ধধরণণয়ন</tspan></text>
		</g>
		<g>
			<text transform="matrix(1 0 0 1 333.9258 1036.2891)" class="st7 st4 st5">শশখন কককশল</text>
		</g>
		<g class="st8">
			<text transform="matrix(1 0 0 1 333.6514 1063.8066)" class="st4 st9">পকলভভততততক</text>
		</g>
		<g class="st8">
			<text transform="matrix(1 0 0 1 333.8872 1087.8867)" class="st4 st9">সমসসস ও চচচললঞভভততততক</text>
		</g>
		<g class="st8">
			<text transform="matrix(1 0 0 1 333.8862 1110.7725)" class="st4 st9">অননসনননমমলক</text>
		</g>
		<g class="st8">
			<text transform="matrix(1 0 0 1 333.8867 1136.0459)" class="st4 st9">সহযযযগগততমমলক</text>
		</g>
		<g class="st8">
			<text transform="matrix(1 0 0 1 333.8872 1158.9326)" class="st4 st9">সসযযযগমমলক</text>
		</g>
		<g class="st8">
			<text transform="matrix(1 0 0 1 333.6509 1184.8643)" class="st4 st9">পপককপটননররর</text>
		</g>
		<g>
			<text transform="matrix(1 0 0 1 550.7959 1036.292)" class="st10 st4 st5">শশখন পককযয</text>
		</g>
		<g>
			<text transform="matrix(1 0 0 1 550.7559 1062.5684)" class="st4 st9">অভভজতত</text>
		</g>
		<g>
			<text transform="matrix(1 0 0 1 550.5205 1083.123)" class="st4 st9">পররববশশর সসথথ মমথষষযয</text>
		</g>
		<g>
			<text transform="matrix(1 0 0 1 550.5195 1104.3145)" class="st4 st9">পররববকণ</text>
		</g>
		<g>
			<text transform="matrix(1 0 0 1 550.7568 1123.0039)" class="st4 st9">হহতত কলমম ককজ</text>
		</g>
		<g>
			<text transform="matrix(1 0 0 1 550.7549 1145.2803)" class="st4 st9">দললয ককজ</text>
		</g>
		<g>
			<text transform="matrix(1 0 0 1 550.5205 1165.1953)" class="st4 st9">পঠন</text>
		</g>
		<g>
			<text transform="matrix(1 0 0 1 550.7568 1185.8281)" class="st4 st9">সসতততত ধধরণ</text>
		</g>
	</g>
	<g>
		<g>
			<g>
				<g>
					<path class="st0" d="M523.6,97c19.4,0,35.1,15.8,35.1,35.1c0,19.4-15.8,35.1-35.1,35.1h-69c-19.4,0-35.1-15.8-35.1-35.1
						c0-19.4,15.8-35.1,35.1-35.1H523.6 M523.6,90.9h-69c-22.8,0-41.3,18.5-41.3,41.3v0c0,22.8,18.5,41.3,41.3,41.3h69
						c22.8,0,41.3-18.5,41.3-41.3v0C564.9,109.4,546.4,90.9,523.6,90.9L523.6,90.9z"/>
				</g>
				<g>
					<path class="st0" d="M523.6,708.2c19.4,0,35.1,15.8,35.1,35.1c0,19.4-15.8,35.1-35.1,35.1h-69c-19.4,0-35.1-15.8-35.1-35.1
						s15.8-35.1,35.1-35.1H523.6 M523.6,702h-69c-22.8,0-41.3,18.5-41.3,41.3v0c0,22.8,18.5,41.3,41.3,41.3h69
						c22.8,0,41.3-18.5,41.3-41.3v0C564.9,720.5,546.4,702,523.6,702L523.6,702z"/>
				</g>
				<g>
					<path class="st0" d="M195.4,402.6c13.8,0,24.9,11.2,24.9,24.9v20.4c0,13.8-11.2,24.9-24.9,24.9h-23.8
						c-13.8,0-24.9-11.2-24.9-24.9v-20.4c0-13.8,11.2-24.9,24.9-24.9H195.4 M195.4,396.5h-23.8c-17.2,0-31.1,13.9-31.1,31.1v20.4
						c0,17.2,13.9,31.1,31.1,31.1h23.8c17.2,0,31.1-13.9,31.1-31.1v-20.4C226.5,410.4,212.6,396.5,195.4,396.5L195.4,396.5z"/>
				</g>
				<g>
					<path class="st0" d="M821.3,402.6c17.7,0,32,14.4,32,32v6.2c0,17.7-14.4,32-32,32h-53.1c-17.7,0-32-14.4-32-32v-6.2
						c0-17.7,14.4-32,32-32H821.3 M821.3,396.5h-53.1c-21.1,0-38.2,17.1-38.2,38.2v6.2c0,21.1,17.1,38.2,38.2,38.2h53.1
						c21.1,0,38.2-17.1,38.2-38.2v-6.2C859.4,413.6,842.3,396.5,821.3,396.5L821.3,396.5z"/>
				</g>
				<g>
					<path class="st0" d="M383.1,150.2l-35.1-1.2l6,11.3c-36.6,17.9-70,43.4-97,74.1c-29.6,33.8-51.9,74.4-64.4,117.3
						c-0.8,2.6-1.5,5.3-2.2,8l5.9,1.5c0.7-2.6,1.4-5.2,2.1-7.8c23.9-82.4,81.3-150.3,158.3-187.7l7.6,14.3L383.1,150.2z"/>
				</g>
				<g>
					<path class="st0" d="M769.6,308.8c-34.9-75.7-99.2-134.5-178-162.2l-2,5.8c77.2,27.2,140.3,84.9,174.5,159.1l-13,6.2l28.9,19.9
						l2.8-35L769.6,308.8z"/>
				</g>
				<g>
					<path class="st0" d="M201.2,530.7l14.4-3.5l-24.3-25.4l-9.8,33.7l13.8-3.4c28.9,90.1,98.3,162.7,187.7,195.5l2.1-5.8
						C297.5,689.8,229.6,618.9,201.2,530.7z"/>
				</g>
				<g>
					<path class="st0" d="M790.2,505.9l-6-1.3c-20.4,90.3-81.4,166.3-164.6,206.1l-7-13.5l-18.9,29.5l35.1,1.6l-6.3-12.3
						C707.3,675.5,769.4,598,790.2,505.9z"/>
				</g>
			</g>
		</g>
		<text transform="matrix(1 0 0 1 438.9536 129.1127)"><tspan x="0" y="0" class="st4 st5">পপককপটননররর</tspan><tspan x="16.5" y="19.3" class="st4 st5">অভভজতত</tspan></text>
		<g>
			<text transform="matrix(1 0 0 1 161.7876 433.0961)"><tspan x="0" y="0" class="st4 st5">সককয়</tspan><tspan x="-4.8" y="19.3" class="st4 st5">পররকণ</tspan></text>
		</g>
		<g>
			<text transform="matrix(1 0 0 1 742.6641 437.7553)"><tspan x="0" y="0" class="st4 st5">পততফলনমমলক</tspan><tspan x="19" y="19.3" class="st4 st5">পররববকণ</tspan></text>
		</g>
		<g>
			<text transform="matrix(1 0 0 1 469.6396 738.7338)"><tspan x="0" y="0" class="st4 st5">ববমমরর</tspan><tspan x="-10.5" y="19.3" class="st4 st5">ধধরণণয়ন</tspan></text>
		</g>
	</g>
</g>
</svg>
